HIERARCHY
ROOT SpineBase
{
  OFFSET 0.000000 0.000000 0.000000
  CHANNELS 6 Xposition Yposition Zposition Zrotation Xrotation Yrotation
  JOINT SpineMid
  {
    OFFSET 0.000000 30.433926 0.000000
    CHANNELS 3 Zrotation Xrotation Yrotation
    JOINT SpineShoulder
    {
      OFFSET -0.234535 22.774359 -0.449699
      CHANNELS 3 Zrotation Xrotation Yrotation
      JOINT Neck
      {
        OFFSET -0.055256 7.564952 -0.435348
        CHANNELS 3 Zrotation Xrotation Yrotation
        JOINT Head
        {
          OFFSET -5.335572 12.893902 4.382482
          CHANNELS 3 Zrotation Xrotation Yrotation
          End Site
          {
            OFFSET 0 0 0
          }
        }
      }
      JOINT ShoulderLeft
      {
        OFFSET -14.809656 -4.353060 5.328932
        CHANNELS 3 Zrotation Xrotation Yrotation
        JOINT ElbowLeft
        {
          OFFSET -5.418902 -27.330911 9.370303
          CHANNELS 3 Zrotation Xrotation Yrotation
          JOINT WristLeft
          {
            OFFSET -5.068313 -21.021039 3.140222
            CHANNELS 3 Zrotation Xrotation Yrotation
            JOINT HandLeft
            {
              OFFSET -1.899474 -5.268851 1.370197
              CHANNELS 3 Zrotation Xrotation Yrotation
              JOINT HandTipLeft
              {
                OFFSET 0.579460 -4.279197 -0.595385
                CHANNELS 3 Zrotation Xrotation Yrotation
                End Site
                {
                  OFFSET 0 0 0
                }
              }
              JOINT ThumbLeft
              {
                OFFSET 2.583561 -0.145485 2.575131
                CHANNELS 3 Zrotation Xrotation Yrotation
                End Site
                {
                  OFFSET 0 0 0
                }
              }
            }
          }
        }
      }
      JOINT ShoulderRight
      {
        OFFSET 9.501251 -1.813612 -12.248013
        CHANNELS 3 Zrotation Xrotation Yrotation
        JOINT ElbowRight
        {
          OFFSET 3.844849 -24.241682 -8.063509
          CHANNELS 3 Zrotation Xrotation Yrotation
          JOINT WristRight
          {
            OFFSET -10.144572 -17.226812 -11.522446
            CHANNELS 3 Zrotation Xrotation Yrotation
            JOINT HandRight
            {
              OFFSET -3.175860 -2.562903 -2.496859
              CHANNELS 3 Zrotation Xrotation Yrotation
              JOINT HandTipRight
              {
                OFFSET -3.009367 -4.248413 -2.194193
                CHANNELS 3 Zrotation Xrotation Yrotation
                End Site
                {
                  OFFSET 0 0 0
                }
              }
              JOINT ThumbRight
              {
                OFFSET 2.655323 -1.996560 -1.003150
                CHANNELS 3 Zrotation Xrotation Yrotation
                End Site
                {
                  OFFSET 0 0 0
                }
              }
            }
          }
        }
      }
    }
  }
  JOINT HipLeft
  {
    OFFSET -5.751672 0.602190 -0.315432
    CHANNELS 3 Zrotation Xrotation Yrotation
    JOINT KneeLeft
    {
      OFFSET 1.323375 -29.515647 -0.113711
      CHANNELS 3 Zrotation Xrotation Yrotation
      JOINT AnkleLeft
      {
        OFFSET 3.887789 -30.118351 -0.195195
        CHANNELS 3 Zrotation Xrotation Yrotation
        JOINT FootLeft
        {
          OFFSET -5.160754 -3.042357 -11.707573
          CHANNELS 3 Zrotation Xrotation Yrotation
          End Site
          {
            OFFSET 0 0 0
          }
        }
      }
    }
  }
  JOINT HipRight
  {
    OFFSET 6.457973 2.042847 -6.403780
    CHANNELS 3 Zrotation Xrotation Yrotation
    JOINT KneeRight
    {
      OFFSET 6.323704 -24.880007 4.538050
      CHANNELS 3 Zrotation Xrotation Yrotation
      JOINT AnkleRight
      {
        OFFSET -2.644162 -31.735149 23.458991
        CHANNELS 3 Zrotation Xrotation Yrotation
        JOINT FootRight
        {
          OFFSET -6.141607 -2.927961 -15.996856
          CHANNELS 3 Zrotation Xrotation Yrotation
          End Site
          {
            OFFSET 0 0 0
          }
        }
      }
    }
  }
}
MOTION
Frames: 14
Frame Time: 0.033333
-40.592705 67.210158 331.743946 6.656915 -1.099477 23.932804 -1.960139 -1.235058 -23.691122 -0.758731 -0.565326 0.206382 -2.307011 -2.611612 -3.503996 0.000000 0.000000 0.000000 4.660282 24.958987 -3.888022 3.202555 19.698901 -9.248551 4.595025 22.846375 -16.123411 -7.551772 -49.880721 18.549080 0.000000 0.000000 0.000000 0.000000 0.000000 0.000000 22.104505 1.713048 -10.328965 -18.864798 1.956351 0.688271 4.943958 -9.723553 5.593187 -6.065856 6.853577 -0.053371 0.000000 0.000000 0.000000 0.000000 0.000000 0.000000 -4.602024 -0.435247 -23.877010 -1.459285 0.874963 -0.133089 -0.254424 2.567296 -3.420473 0.000000 0.000000 0.000000 0.572769 19.996041 -20.611940 9.037121 12.413235 -0.443831 -0.543087 -51.379709 4.586451 0.000000 0.000000 0.000000
-40.752261 66.640975 331.532470 5.465197 -2.387180 24.908248 -1.935014 -0.971266 -24.662699 -0.734458 -0.480003 0.161840 -0.690877 -3.132425 -4.219741 0.000000 0.000000 0.000000 5.389715 25.051579 -3.742395 1.630774 22.495573 -10.398547 5.361946 24.040416 -16.339690 -7.653402 -47.162263 20.068755 0.000000 0.000000 0.000000 0.000000 0.000000 0.000000 22.364188 0.922994 -10.269476 -16.506588 0.694501 2.115035 4.504170 -7.443322 4.107017 -6.142997 4.587128 1.970866 0.000000 0.000000 0.000000 0.000000 0.000000 0.000000 -2.121894 1.969066 -24.820541 -3.601613 0.097515 -0.048855 3.907428 -5.024226 -0.597454 0.000000 0.000000 0.000000 2.477093 20.624385 -21.717088 9.117257 17.573212 -1.660057 -3.103525 -50.770593 6.949548 0.000000 0.000000 0.000000
-40.933758 66.479153 330.752603 3.986460 -2.818071 25.979683 -2.030435 -0.923281 -25.799423 -0.814859 -0.317121 0.097937 1.064123 -3.655987 -4.571571 0.000000 0.000000 0.000000 6.209634 24.076190 -3.417151 0.245013 24.160148 -10.795676 5.392501 15.407484 -10.017341 -12.277662 -36.922160 15.351424 0.000000 0.000000 0.000000 0.000000 0.000000 0.000000 22.245131 0.756722 -9.691503 -14.405680 -0.910472 3.342454 5.919544 -6.046095 1.878256 -7.653653 3.191147 4.445906 0.000000 0.000000 0.000000 0.000000 0.000000 0.000000 -0.296135 3.495765 -25.932924 -0.768554 -3.839102 -0.433068 7.171732 -15.516969 4.915605 0.000000 0.000000 0.000000 4.608123 19.693676 -22.964975 8.253537 19.556355 -2.647761 -6.565133 -44.846908 6.845449 0.000000 0.000000 0.000000
-41.141001 66.629953 329.558392 2.307487 -2.608165 26.880377 -2.081551 -1.026194 -26.805381 -0.869260 -0.188110 0.030277 2.512332 -4.274714 -4.623970 0.000000 0.000000 0.000000 7.132971 22.609729 -3.046747 -1.046638 23.799239 -10.357073 5.892265 11.703440 -7.166051 -12.023829 -34.135731 13.840900 0.000000 0.000000 0.000000 0.000000 0.000000 0.000000 22.079375 0.238555 -8.893639 -12.081827 -2.293406 4.199115 5.204451 -2.770483 -1.738978 -7.676817 0.925971 7.068265 0.000000 0.000000 0.000000 0.000000 0.000000 0.000000 1.209429 4.294084 -26.867956 5.761398 -10.635030 -0.503369 9.187982 -23.451015 10.339921 0.000000 0.000000 0.000000 6.171038 18.207206 -23.959246 8.106849 19.467536 -2.532883 -7.351338 -42.385413 5.058438 0.000000 0.000000 0.000000
-41.393587 67.089775 328.213859 0.550076 -1.915267 27.644397 -2.037787 -1.101481 -27.678139 -0.811075 -0.024715 -0.036583 3.491694 -4.371621 -4.068652 0.000000 0.000000 0.000000 8.195877 21.176229 -2.771929 -2.060729 20.887125 -9.177518 6.542746 7.307284 -4.034043 -15.293148 -29.181422 9.892985 0.000000 0.000000 0.000000 0.000000 0.000000 0.000000 21.908802 -0.505731 -7.939448 -10.524791 -3.225857 4.810101 6.586813 -1.593317 -4.590700 -9.608675 0.956546 8.704175 0.000000 0.000000 0.000000 0.000000 0.000000 0.000000 2.435422 4.437114 -27.616937 15.516658 -19.213433 0.825906 6.945829 -25.095801 13.265378 0.000000 0.000000 0.000000 7.029454 15.804350 -24.798521 8.454006 18.747665 -1.633795 -7.734864 -40.830413 2.922934 0.000000 0.000000 0.000000
-41.086305 67.760870 326.808126 -0.471008 -0.801063 27.597394 -2.050379 -0.933524 -27.678205 -0.728227 0.127868 -0.083980 3.914989 -4.479293 -3.242308 0.000000 0.000000 0.000000 8.846508 19.441145 -2.498356 -2.373935 16.383770 -7.594570 6.370068 1.524765 -0.959390 -15.679282 -25.802844 6.443387 0.000000 0.000000 0.000000 0.000000 0.000000 0.000000 21.154421 -2.401768 -6.820688 -9.377210 -1.950344 4.364934 7.848730 -1.782114 -6.079077 -11.007939 1.063031 9.825685 0.000000 0.000000 0.000000 0.000000 0.000000 0.000000 1.789327 4.408465 -27.466798 28.527593 -27.964802 4.308269 -0.969445 -19.926308 12.064120 0.000000 0.000000 0.000000 5.789455 14.053727 -24.853919 9.721564 17.532006 -0.401458 -9.057019 -35.520020 -1.238571 0.000000 0.000000 0.000000
-40.761007 68.420580 325.144129 -1.468799 0.948929 26.941844 -1.963380 -1.150480 -27.047357 -0.800580 0.125728 -0.133597 2.993020 -4.697986 -1.996220 0.000000 0.000000 0.000000 9.249143 17.710505 -2.281779 -1.722732 12.003155 -5.937569 3.419019 -4.521229 0.356316 -13.531547 -21.921414 4.523113 0.000000 0.000000 0.000000 0.000000 0.000000 0.000000 20.736360 -5.126738 -5.858903 -7.531965 -0.092144 3.302270 7.779559 -2.190498 -5.789357 -11.679618 2.872466 8.780073 0.000000 0.000000 0.000000 0.000000 0.000000 0.000000 0.487502 1.708947 -26.789549 40.520690 -32.098026 7.873152 -12.432824 -11.035880 10.731416 0.000000 0.000000 0.000000 4.023891 11.214898 -24.401708 10.663065 18.162613 0.312670 -9.565553 -30.785965 -5.859042 0.000000 0.000000 0.000000
-40.172770 69.067786 323.510720 -1.887049 2.975228 25.662152 -1.950681 -1.410993 -25.752900 -0.909211 0.064361 -0.173880 0.907466 -4.216265 -0.220560 0.000000 0.000000 0.000000 9.407559 16.267961 -2.156650 -0.679537 7.409190 -4.239530 -2.176277 -2.554790 -2.905251 -7.933864 -24.615993 5.607610 0.000000 0.000000 0.000000 0.000000 0.000000 0.000000 20.553597 -8.265201 -5.122379 -5.946621 2.269979 1.847964 8.710591 -4.396487 -3.802546 -11.216017 5.783817 6.146329 0.000000 0.000000 0.000000 0.000000 0.000000 0.000000 -2.018684 -2.727492 -25.738946 49.053517 -32.144831 8.922223 -25.197382 -0.499069 10.119084 0.000000 0.000000 0.000000 1.407026 8.832399 -23.450903 11.953366 18.365527 1.087233 -9.363454 -31.468851 -3.803442 0.000000 0.000000 0.000000
-39.463437 69.639814 322.068815 -1.764294 5.016910 24.155676 -1.971015 -1.627894 -24.220386 -1.041263 -0.085832 -0.206293 -2.180112 -3.398650 1.787862 0.000000 0.000000 0.000000 9.529391 15.289811 -2.094045 0.090284 3.643675 -2.957048 -15.924041 5.392695 -11.317758 8.104574 -27.252034 14.207799 0.000000 0.000000 0.000000 0.000000 0.000000 0.000000 20.542159 -11.698387 -4.600186 -4.434600 4.568425 0.388099 9.729824 -6.317176 -2.026819 -9.465082 7.518987 3.778673 0.000000 0.000000 0.000000 0.000000 0.000000 0.000000 -5.132459 -8.706552 -24.886072 53.453214 -29.663462 6.798249 -38.211086 10.630465 10.867154 0.000000 0.000000 0.000000 -1.577110 6.799208 -22.429035 13.304616 18.501565 1.771300 -9.262659 -29.915466 -5.028178 0.000000 0.000000 0.000000
-38.664115 69.964087 320.885918 -1.579097 6.455397 22.667364 -1.989272 -1.620806 -22.717765 -1.115919 -0.256280 -0.234259 -4.819349 -2.028687 3.736730 0.000000 0.000000 0.000000 9.616831 14.844963 -2.121140 -0.328381 1.818746 -2.594995 -40.349642 31.476876 -23.518885 49.485193 -28.667380 42.520237 0.000000 0.000000 0.000000 0.000000 0.000000 0.000000 20.603999 -14.238878 -4.215159 -2.210457 5.306853 -0.963882 11.023610 -7.869804 -0.385063 -7.001099 7.695914 2.234562 0.000000 0.000000 0.000000 0.000000 0.000000 0.000000 -8.053935 -13.667358 -24.277450 55.744146 -26.234074 3.474816 -45.233331 14.512650 12.075545 0.000000 0.000000 0.000000 -4.202136 5.486514 -21.490509 14.737188 18.539080 2.407460 -9.447342 -28.025987 -5.853503 0.000000 0.000000 0.000000
-37.910149 69.940894 320.214501 -1.208633 7.121099 21.971928 -1.857138 -1.336290 -22.009330 -1.084339 -0.454450 -0.236815 -7.637274 -0.417111 5.558233 0.000000 0.000000 0.000000 9.179942 14.796260 -2.273655 -1.525056 2.747023 -3.267825 -62.461704 59.554344 -24.863054 81.732419 -18.260176 68.813368 0.000000 0.000000 0.000000 0.000000 0.000000 0.000000 20.484457 -15.678893 -4.039259 0.401819 4.576617 -2.137096 13.050053 -9.570541 1.748563 -6.003340 8.271514 0.867824 0.000000 0.000000 0.000000 0.000000 0.000000 0.000000 -10.610887 -16.791658 -24.418038 54.474493 -21.442494 -0.379508 -47.115401 15.777608 12.039981 0.000000 0.000000 0.000000 -6.070346 5.263289 -21.167261 15.854681 18.282048 2.845511 -9.407792 -27.512173 -5.838361 0.000000 0.000000 0.000000
-37.151042 69.597244 319.983764 -0.606388 7.141406 21.934540 -1.678930 -0.898295 -21.971350 -0.982662 -0.637454 -0.212274 -10.660722 1.039330 7.120615 0.000000 0.000000 0.000000 8.229271 15.060946 -2.541581 -2.897387 5.756532 -4.511366 -51.487548 65.221400 -30.183262 79.523379 -21.390931 76.891262 0.000000 0.000000 0.000000 0.000000 0.000000 0.000000 20.041930 -16.007916 -4.043289 4.092826 2.287216 -3.465669 13.351785 -9.995302 4.283078 -5.132005 8.507639 -0.457838 0.000000 0.000000 0.000000 0.000000 0.000000 0.000000 -13.456617 -16.999239 -24.977811 53.923987 -16.555830 -3.008511 -45.624159 12.655969 14.966927 0.000000 0.000000 0.000000 -7.377491 6.458790 -21.175152 16.755717 16.997933 3.153734 -9.146721 -27.621200 -5.048892 0.000000 0.000000 0.000000
-36.759264 69.332390 319.933481 -0.353784 7.052726 22.293250 -1.533332 -0.665906 -22.325559 -0.936081 -0.642656 -0.195716 -12.056717 1.721691 7.860603 0.000000 0.000000 0.000000 6.880125 14.751994 -2.799520 -3.389949 10.381077 -5.623999 -30.202469 56.057527 -34.853528 61.420606 -32.713483 71.012423 0.000000 0.000000 0.000000 0.000000 0.000000 0.000000 19.353234 -15.683775 -3.967158 7.090087 -0.238981 -3.999468 17.917575 -11.766116 4.206792 -9.277489 10.651355 1.074041 0.000000 0.000000 0.000000 0.000000 0.000000 0.000000 -14.826214 -16.934124 -25.596638 51.930911 -13.096876 -4.460424 -42.604970 10.949008 11.634284 0.000000 0.000000 0.000000 -7.950518 6.887214 -21.610781 17.217467 16.954708 3.325302 -9.329709 -27.728089 -4.252451 0.000000 0.000000 0.000000
-36.799551 69.054286 320.291299 -0.314466 6.544936 23.663631 -1.287181 -0.414469 -23.678633 -0.790337 -0.623546 -0.168043 -12.619458 1.419570 7.686008 0.000000 0.000000 0.000000 5.600005 14.854476 -3.092232 -3.751430 14.918978 -6.602872 -22.005186 47.648755 -33.513884 48.501998 -35.188190 64.001103 0.000000 0.000000 0.000000 0.000000 0.000000 0.000000 18.184164 -14.716640 -3.919761 9.609309 -2.673605 -4.121609 19.169695 -11.448540 0.350452 -12.233363 10.562389 5.262373 0.000000 0.000000 0.000000 0.000000 0.000000 0.000000 -14.244519 -15.499918 -26.597987 46.521218 -10.653206 -4.451513 -37.327713 11.221565 4.243504 0.000000 0.000000 0.000000 -7.358131 7.332156 -22.893865 17.000061 17.423813 3.251408 -9.627269 -28.366289 -3.249770 0.000000 0.000000 0.000000
